<?xml version="1.0" standalone="no"?>
<!DOCTYPE svg PUBLIC "-//W3C//DTD SVG 20010904//EN"
 "http://www.w3.org/TR/2001/REC-SVG-20010904/DTD/svg10.dtd">
<svg version="1.0" xmlns="http://www.w3.org/2000/svg"
 width="250.000000pt" height="250.000000pt" viewBox="0 0 250.000000 250.000000"
 preserveAspectRatio="xMidYMid meet">
<metadata>
Created by potrace 1.14, written by Peter Selinger 2001-2017
</metadata>
<g transform="translate(0.000000,250.000000) scale(0.100000,-0.100000)"
fill="#000000" stroke="none">
<path d="M1147 1980 c-90 -23 -174 -84 -197 -144 -17 -45 -7 -40 31 16 110
166 447 160 547 -10 28 -49 43 -43 18 6 -21 40 -70 80 -135 110 -60 28 -196
39 -264 22z"/>
<path d="M1192 1872 c-30 -5 -38 -24 -47 -107 -4 -38 -9 -73 -11 -77 -3 -5 5
-8 18 -9 66 -3 513 3 519 7 4 2 5 23 3 47 -3 23 -7 52 -8 65 -4 30 -8 33 -60
39 l-45 4 9 -30 c4 -16 6 -32 2 -35 -15 -15 -30 -2 -41 34 -6 22 -17 40 -24
41 -7 0 -21 3 -32 5 -11 3 -67 7 -125 10 -58 3 -112 6 -120 7 -8 2 -25 1 -38
-1z"/>
<path d="M1129 1866 c-2 -2 -33 -6 -68 -10 -59 -5 -91 -18 -91 -37 0 -4 -5
-20 -10 -34 -8 -22 -13 -25 -25 -15 -10 8 -11 18 -5 35 9 25 5 33 -17 29 -7
-1 -22 -2 -32 -3 -25 -1 -31 -24 -47 -161 -3 -25 -7 -56 -9 -70 -11 -76 -17
-118 -20 -140 -3 -14 -11 -81 -20 -150 -9 -69 -18 -136 -20 -150 -7 -42 -34
-233 -38 -271 l-4 -35 526 0 c461 1 526 3 525 16 0 8 -4 51 -9 95 -5 44 -8 83
-7 88 2 9 38 8 -370 8 l-347 -1 4 43 c4 35 20 161 41 322 2 17 6 53 9 80 3 28
8 57 10 65 2 8 7 49 10 90 4 41 8 77 10 80 5 9 17 130 12 130 -2 0 -6 -2 -8
-4z"/>
<path d="M1236 1503 c-4 -4 -33 -6 -66 -5 -41 1 -60 -2 -60 -11 0 -6 -7 -59
-15 -117 -8 -58 -15 -108 -15 -111 0 -3 146 -6 325 -6 l325 -1 -5 47 c-2 25
-7 66 -11 91 -6 41 -9 62 -13 97 -1 7 -18 10 -46 8 -25 -1 -45 2 -45 8 0 5 -8
3 -17 -4 -15 -12 -16 -12 -8 1 7 12 6 13 -6 3 -15 -12 -48 -11 -69 2 -6 3 -10
2 -10 -2 0 -10 -106 -10 -116 -1 -3 4 -16 4 -28 0 -26 -9 -88 -8 -102 1 -6 3
-14 3 -18 0z"/>
<path d="M350 686 c-22 -7 -40 -22 -48 -40 -13 -25 -12 -31 5 -54 11 -14 32
-30 49 -35 37 -12 54 -26 54 -43 0 -18 -46 -19 -53 -1 -6 15 -54 21 -62 7 -4
-6 8 -24 25 -41 27 -28 36 -31 71 -26 51 7 79 32 79 70 0 35 -28 63 -71 72
-33 8 -48 30 -31 47 9 9 17 7 31 -6 26 -24 67 -18 63 9 -7 37 -62 57 -112 41z"/>
<path d="M538 678 c-2 -7 -4 -60 -4 -118 l1 -105 25 0 c22 0 26 5 30 45 5 45
5 45 47 48 l42 3 3 -48 c3 -44 5 -48 28 -48 l25 0 3 118 3 117 -31 0 c-29 0
-30 -2 -30 -44 0 -49 -6 -54 -57 -48 -28 4 -34 8 -32 26 4 54 -1 66 -25 66
-13 0 -26 -6 -28 -12z"/>
<path d="M841 663 c-64 -54 -50 -162 26 -198 104 -50 211 62 159 164 -35 66
-126 83 -185 34z m121 -40 c21 -19 24 -71 4 -98 -17 -24 -75 -23 -93 1 -18 25
-16 74 4 96 20 22 61 23 85 1z"/>
<path d="M1100 569 c0 -119 0 -120 23 -117 29 4 37 16 37 56 0 30 2 32 34 32
76 0 113 74 61 125 -21 22 -33 25 -90 25 l-65 0 0 -121z m118 44 c2 -14 -2
-23 -10 -24 -7 0 -20 -2 -30 -4 -11 -2 -17 6 -20 27 -4 27 -3 29 26 26 23 -2
32 -9 34 -25z"/>
<path d="M1339 665 c0 -14 -1 -59 -1 -100 0 -120 -1 -115 27 -113 28 3 33 11
30 56 -1 31 0 32 37 32 53 0 88 35 83 81 -7 51 -36 69 -111 69 -61 0 -64 -1
-65 -25z m121 -50 c0 -24 -59 -45 -61 -22 -1 7 -2 19 -3 27 0 8 6 18 14 21 19
8 50 -8 50 -26z"/>
<path d="M1577 683 c-2 -5 -3 -57 -3 -118 l1 -110 28 -1 c30 -1 29 -4 29 116
-1 123 0 120 -26 120 -14 0 -27 -3 -29 -7z"/>
<path d="M1702 573 l3 -118 25 0 c24 0 25 4 30 70 l5 70 25 -40 c14 -22 26
-44 29 -49 12 -27 48 -56 66 -54 26 4 31 28 27 145 l-3 94 -27 -3 c-26 -3 -27
-5 -26 -70 0 -38 -1 -68 -2 -68 0 0 -22 32 -48 70 -40 61 -50 70 -76 70 l-31
0 3 -117z"/>
<path d="M2024 671 c-98 -60 -43 -225 72 -216 52 4 90 28 102 65 20 55 12 65
-57 66 -58 2 -62 1 -59 -20 2 -17 10 -21 36 -20 37 1 41 -9 10 -30 -25 -18
-66 -11 -85 13 -19 24 -15 69 7 91 23 23 42 25 73 8 30 -16 65 -19 73 -6 4 6
-7 24 -25 40 -38 34 -99 38 -147 9z"/>
</g>
</svg>
